<mxfile host="app.diagrams.net" modified="2021-03-01T02:23:41.863Z" agent="5.0 (Windows NT 10.0; Win64; x64) AppleWebKit/537.36 (KHTML, like Gecko) Chrome/88.0.4324.190 Safari/537.36" etag="IM_60PfkW1KYLJPCtkFx" version="14.4.3" type="github">
  <diagram id="C5RBs43oDa-KdzZeNtuy" name="Page-1">
    <mxGraphModel dx="1422" dy="762" grid="1" gridSize="10" guides="1" tooltips="1" connect="1" arrows="1" fold="1" page="1" pageScale="1" pageWidth="827" pageHeight="1169" math="0" shadow="0">
      <root>
        <mxCell id="WIyWlLk6GJQsqaUBKTNV-0" />
        <mxCell id="WIyWlLk6GJQsqaUBKTNV-1" parent="WIyWlLk6GJQsqaUBKTNV-0" />
        <mxCell id="Ji8SA3ziWT4KHIKLygUh-3" value="" style="edgeStyle=orthogonalEdgeStyle;rounded=0;orthogonalLoop=1;jettySize=auto;html=1;" edge="1" parent="WIyWlLk6GJQsqaUBKTNV-1" source="WIyWlLk6GJQsqaUBKTNV-3" target="Ji8SA3ziWT4KHIKLygUh-2">
          <mxGeometry relative="1" as="geometry" />
        </mxCell>
        <mxCell id="WIyWlLk6GJQsqaUBKTNV-3" value="原煤仓" style="rounded=1;whiteSpace=wrap;html=1;fontSize=12;glass=0;strokeWidth=1;shadow=0;" parent="WIyWlLk6GJQsqaUBKTNV-1" vertex="1">
          <mxGeometry x="175" y="80" width="90" height="30" as="geometry" />
        </mxCell>
        <mxCell id="Ji8SA3ziWT4KHIKLygUh-5" value="" style="edgeStyle=orthogonalEdgeStyle;rounded=0;orthogonalLoop=1;jettySize=auto;html=1;" edge="1" parent="WIyWlLk6GJQsqaUBKTNV-1" source="Ji8SA3ziWT4KHIKLygUh-2" target="Ji8SA3ziWT4KHIKLygUh-4">
          <mxGeometry relative="1" as="geometry" />
        </mxCell>
        <mxCell id="Ji8SA3ziWT4KHIKLygUh-2" value="原煤准备车间" style="rounded=1;whiteSpace=wrap;html=1;fontSize=12;glass=0;strokeWidth=1;shadow=0;" vertex="1" parent="WIyWlLk6GJQsqaUBKTNV-1">
          <mxGeometry x="175" y="150" width="90" height="30" as="geometry" />
        </mxCell>
        <mxCell id="Ji8SA3ziWT4KHIKLygUh-8" value="" style="edgeStyle=orthogonalEdgeStyle;rounded=0;orthogonalLoop=1;jettySize=auto;html=1;" edge="1" parent="WIyWlLk6GJQsqaUBKTNV-1" source="Ji8SA3ziWT4KHIKLygUh-4" target="Ji8SA3ziWT4KHIKLygUh-7">
          <mxGeometry relative="1" as="geometry" />
        </mxCell>
        <mxCell id="Ji8SA3ziWT4KHIKLygUh-4" value="两道除铁器" style="rounded=1;whiteSpace=wrap;html=1;fontSize=12;glass=0;strokeWidth=1;shadow=0;" vertex="1" parent="WIyWlLk6GJQsqaUBKTNV-1">
          <mxGeometry x="175" y="220" width="90" height="30" as="geometry" />
        </mxCell>
        <mxCell id="Ji8SA3ziWT4KHIKLygUh-6" value="原煤带式输送机" style="text;html=1;strokeColor=none;fillColor=none;align=center;verticalAlign=middle;whiteSpace=wrap;rounded=0;" vertex="1" parent="WIyWlLk6GJQsqaUBKTNV-1">
          <mxGeometry x="230" y="120" width="50" height="20" as="geometry" />
        </mxCell>
        <mxCell id="Ji8SA3ziWT4KHIKLygUh-10" value="" style="edgeStyle=orthogonalEdgeStyle;rounded=0;orthogonalLoop=1;jettySize=auto;html=1;" edge="1" parent="WIyWlLk6GJQsqaUBKTNV-1" source="Ji8SA3ziWT4KHIKLygUh-7" target="Ji8SA3ziWT4KHIKLygUh-11">
          <mxGeometry relative="1" as="geometry">
            <mxPoint x="220" y="400" as="targetPoint" />
          </mxGeometry>
        </mxCell>
        <mxCell id="Ji8SA3ziWT4KHIKLygUh-7" value="原煤分级筛" style="rounded=1;whiteSpace=wrap;html=1;fontSize=12;glass=0;strokeWidth=1;shadow=0;" vertex="1" parent="WIyWlLk6GJQsqaUBKTNV-1">
          <mxGeometry x="175" y="290" width="90" height="30" as="geometry" />
        </mxCell>
        <mxCell id="Ji8SA3ziWT4KHIKLygUh-12" value="" style="edgeStyle=orthogonalEdgeStyle;rounded=0;orthogonalLoop=1;jettySize=auto;html=1;entryX=0.5;entryY=0;entryDx=0;entryDy=0;" edge="1" parent="WIyWlLk6GJQsqaUBKTNV-1" source="Ji8SA3ziWT4KHIKLygUh-11" target="Ji8SA3ziWT4KHIKLygUh-13">
          <mxGeometry relative="1" as="geometry">
            <mxPoint x="220" y="490" as="targetPoint" />
          </mxGeometry>
        </mxCell>
        <mxCell id="Ji8SA3ziWT4KHIKLygUh-19" value="" style="edgeStyle=orthogonalEdgeStyle;rounded=0;orthogonalLoop=1;jettySize=auto;html=1;" edge="1" parent="WIyWlLk6GJQsqaUBKTNV-1" source="Ji8SA3ziWT4KHIKLygUh-11" target="Ji8SA3ziWT4KHIKLygUh-18">
          <mxGeometry relative="1" as="geometry" />
        </mxCell>
        <mxCell id="Ji8SA3ziWT4KHIKLygUh-11" value="&amp;gt;200mm" style="rhombus;whiteSpace=wrap;html=1;" vertex="1" parent="WIyWlLk6GJQsqaUBKTNV-1">
          <mxGeometry x="190" y="360" width="60" height="50" as="geometry" />
        </mxCell>
        <mxCell id="Ji8SA3ziWT4KHIKLygUh-16" value="" style="edgeStyle=orthogonalEdgeStyle;rounded=0;orthogonalLoop=1;jettySize=auto;html=1;" edge="1" parent="WIyWlLk6GJQsqaUBKTNV-1" source="Ji8SA3ziWT4KHIKLygUh-13" target="Ji8SA3ziWT4KHIKLygUh-15">
          <mxGeometry relative="1" as="geometry" />
        </mxCell>
        <mxCell id="Ji8SA3ziWT4KHIKLygUh-13" value="大矸溜槽" style="rounded=1;whiteSpace=wrap;html=1;fontSize=12;glass=0;strokeWidth=1;shadow=0;" vertex="1" parent="WIyWlLk6GJQsqaUBKTNV-1">
          <mxGeometry x="175" y="450" width="90" height="30" as="geometry" />
        </mxCell>
        <mxCell id="Ji8SA3ziWT4KHIKLygUh-14" value="是" style="text;html=1;strokeColor=none;fillColor=none;align=center;verticalAlign=middle;whiteSpace=wrap;rounded=0;" vertex="1" parent="WIyWlLk6GJQsqaUBKTNV-1">
          <mxGeometry x="220" y="420" width="40" height="20" as="geometry" />
        </mxCell>
        <mxCell id="Ji8SA3ziWT4KHIKLygUh-15" value="矸石仓" style="rounded=1;whiteSpace=wrap;html=1;fontSize=12;glass=0;strokeWidth=1;shadow=0;" vertex="1" parent="WIyWlLk6GJQsqaUBKTNV-1">
          <mxGeometry x="175" y="530" width="90" height="30" as="geometry" />
        </mxCell>
        <mxCell id="Ji8SA3ziWT4KHIKLygUh-17" value="矸石带式输送机" style="text;html=1;strokeColor=none;fillColor=none;align=center;verticalAlign=middle;whiteSpace=wrap;rounded=0;" vertex="1" parent="WIyWlLk6GJQsqaUBKTNV-1">
          <mxGeometry x="230" y="500" width="50" height="20" as="geometry" />
        </mxCell>
        <mxCell id="Ji8SA3ziWT4KHIKLygUh-24" value="" style="edgeStyle=orthogonalEdgeStyle;rounded=0;orthogonalLoop=1;jettySize=auto;html=1;" edge="1" parent="WIyWlLk6GJQsqaUBKTNV-1" source="Ji8SA3ziWT4KHIKLygUh-18" target="Ji8SA3ziWT4KHIKLygUh-23">
          <mxGeometry relative="1" as="geometry" />
        </mxCell>
        <mxCell id="Ji8SA3ziWT4KHIKLygUh-30" value="" style="edgeStyle=orthogonalEdgeStyle;rounded=0;orthogonalLoop=1;jettySize=auto;html=1;entryX=0;entryY=0.5;entryDx=0;entryDy=0;" edge="1" parent="WIyWlLk6GJQsqaUBKTNV-1" source="Ji8SA3ziWT4KHIKLygUh-18" target="Ji8SA3ziWT4KHIKLygUh-32">
          <mxGeometry relative="1" as="geometry">
            <mxPoint x="494" y="385" as="targetPoint" />
          </mxGeometry>
        </mxCell>
        <mxCell id="Ji8SA3ziWT4KHIKLygUh-18" value="&amp;lt;200mm且&lt;br&gt;&amp;gt;50mm" style="rhombus;whiteSpace=wrap;html=1;" vertex="1" parent="WIyWlLk6GJQsqaUBKTNV-1">
          <mxGeometry x="334" y="350" width="80" height="70" as="geometry" />
        </mxCell>
        <mxCell id="Ji8SA3ziWT4KHIKLygUh-20" value="否" style="text;html=1;strokeColor=none;fillColor=none;align=center;verticalAlign=middle;whiteSpace=wrap;rounded=0;" vertex="1" parent="WIyWlLk6GJQsqaUBKTNV-1">
          <mxGeometry x="265" y="360" width="40" height="20" as="geometry" />
        </mxCell>
        <mxCell id="Ji8SA3ziWT4KHIKLygUh-29" value="" style="edgeStyle=orthogonalEdgeStyle;rounded=0;orthogonalLoop=1;jettySize=auto;html=1;" edge="1" parent="WIyWlLk6GJQsqaUBKTNV-1" source="Ji8SA3ziWT4KHIKLygUh-23" target="Ji8SA3ziWT4KHIKLygUh-28">
          <mxGeometry relative="1" as="geometry" />
        </mxCell>
        <mxCell id="Ji8SA3ziWT4KHIKLygUh-23" value="首选皮带" style="rounded=1;whiteSpace=wrap;html=1;fontSize=12;glass=0;strokeWidth=1;shadow=0;" vertex="1" parent="WIyWlLk6GJQsqaUBKTNV-1">
          <mxGeometry x="329" y="450" width="90" height="30" as="geometry" />
        </mxCell>
        <mxCell id="Ji8SA3ziWT4KHIKLygUh-27" value="是" style="text;html=1;strokeColor=none;fillColor=none;align=center;verticalAlign=middle;whiteSpace=wrap;rounded=0;" vertex="1" parent="WIyWlLk6GJQsqaUBKTNV-1">
          <mxGeometry x="374" y="420" width="40" height="20" as="geometry" />
        </mxCell>
        <mxCell id="Ji8SA3ziWT4KHIKLygUh-35" value="" style="edgeStyle=orthogonalEdgeStyle;rounded=0;orthogonalLoop=1;jettySize=auto;html=1;entryX=0.5;entryY=0;entryDx=0;entryDy=0;" edge="1" parent="WIyWlLk6GJQsqaUBKTNV-1" source="Ji8SA3ziWT4KHIKLygUh-28" target="Ji8SA3ziWT4KHIKLygUh-37">
          <mxGeometry relative="1" as="geometry">
            <mxPoint x="374" y="610" as="targetPoint" />
          </mxGeometry>
        </mxCell>
        <mxCell id="Ji8SA3ziWT4KHIKLygUh-28" value="动筛跳汰机" style="rounded=1;whiteSpace=wrap;html=1;fontSize=12;glass=0;strokeWidth=1;shadow=0;" vertex="1" parent="WIyWlLk6GJQsqaUBKTNV-1">
          <mxGeometry x="329" y="530" width="90" height="30" as="geometry" />
        </mxCell>
        <mxCell id="Ji8SA3ziWT4KHIKLygUh-31" value="否" style="text;html=1;strokeColor=none;fillColor=none;align=center;verticalAlign=middle;whiteSpace=wrap;rounded=0;" vertex="1" parent="WIyWlLk6GJQsqaUBKTNV-1">
          <mxGeometry x="410" y="360" width="40" height="20" as="geometry" />
        </mxCell>
        <mxCell id="Ji8SA3ziWT4KHIKLygUh-32" value="主洗车间" style="rounded=1;whiteSpace=wrap;html=1;fontSize=12;glass=0;strokeWidth=1;shadow=0;" vertex="1" parent="WIyWlLk6GJQsqaUBKTNV-1">
          <mxGeometry x="459" y="370" width="90" height="30" as="geometry" />
        </mxCell>
        <mxCell id="Ji8SA3ziWT4KHIKLygUh-36" value="分选煤矸混合物" style="text;html=1;strokeColor=none;fillColor=none;align=center;verticalAlign=middle;whiteSpace=wrap;rounded=0;" vertex="1" parent="WIyWlLk6GJQsqaUBKTNV-1">
          <mxGeometry x="380" y="574.5" width="50" height="20" as="geometry" />
        </mxCell>
        <mxCell id="Ji8SA3ziWT4KHIKLygUh-38" value="" style="edgeStyle=orthogonalEdgeStyle;rounded=0;orthogonalLoop=1;jettySize=auto;html=1;entryX=0.5;entryY=0;entryDx=0;entryDy=0;" edge="1" parent="WIyWlLk6GJQsqaUBKTNV-1" source="Ji8SA3ziWT4KHIKLygUh-37" target="Ji8SA3ziWT4KHIKLygUh-39">
          <mxGeometry relative="1" as="geometry">
            <mxPoint x="374" y="700" as="targetPoint" />
          </mxGeometry>
        </mxCell>
        <mxCell id="Ji8SA3ziWT4KHIKLygUh-46" value="" style="edgeStyle=orthogonalEdgeStyle;rounded=0;orthogonalLoop=1;jettySize=auto;html=1;entryX=0;entryY=0.5;entryDx=0;entryDy=0;" edge="1" parent="WIyWlLk6GJQsqaUBKTNV-1" source="Ji8SA3ziWT4KHIKLygUh-37" target="Ji8SA3ziWT4KHIKLygUh-47">
          <mxGeometry relative="1" as="geometry">
            <mxPoint x="460" y="640" as="targetPoint" />
          </mxGeometry>
        </mxCell>
        <mxCell id="Ji8SA3ziWT4KHIKLygUh-37" value="是否重产物" style="rhombus;whiteSpace=wrap;html=1;" vertex="1" parent="WIyWlLk6GJQsqaUBKTNV-1">
          <mxGeometry x="336" y="610" width="76" height="60" as="geometry" />
        </mxCell>
        <mxCell id="Ji8SA3ziWT4KHIKLygUh-42" value="" style="edgeStyle=orthogonalEdgeStyle;rounded=0;orthogonalLoop=1;jettySize=auto;html=1;" edge="1" parent="WIyWlLk6GJQsqaUBKTNV-1" source="Ji8SA3ziWT4KHIKLygUh-39" target="Ji8SA3ziWT4KHIKLygUh-41">
          <mxGeometry relative="1" as="geometry" />
        </mxCell>
        <mxCell id="Ji8SA3ziWT4KHIKLygUh-39" value="提升轮前端" style="rounded=1;whiteSpace=wrap;html=1;fontSize=12;glass=0;strokeWidth=1;shadow=0;" vertex="1" parent="WIyWlLk6GJQsqaUBKTNV-1">
          <mxGeometry x="329" y="700" width="90" height="30" as="geometry" />
        </mxCell>
        <mxCell id="Ji8SA3ziWT4KHIKLygUh-40" value="是" style="text;html=1;strokeColor=none;fillColor=none;align=center;verticalAlign=middle;whiteSpace=wrap;rounded=0;" vertex="1" parent="WIyWlLk6GJQsqaUBKTNV-1">
          <mxGeometry x="370" y="670" width="40" height="20" as="geometry" />
        </mxCell>
        <mxCell id="Ji8SA3ziWT4KHIKLygUh-44" value="" style="edgeStyle=orthogonalEdgeStyle;rounded=0;orthogonalLoop=1;jettySize=auto;html=1;" edge="1" parent="WIyWlLk6GJQsqaUBKTNV-1" source="Ji8SA3ziWT4KHIKLygUh-41" target="Ji8SA3ziWT4KHIKLygUh-43">
          <mxGeometry relative="1" as="geometry" />
        </mxCell>
        <mxCell id="Ji8SA3ziWT4KHIKLygUh-41" value="斗提机" style="rounded=1;whiteSpace=wrap;html=1;fontSize=12;glass=0;strokeWidth=1;shadow=0;" vertex="1" parent="WIyWlLk6GJQsqaUBKTNV-1">
          <mxGeometry x="329" y="770" width="90" height="30" as="geometry" />
        </mxCell>
        <mxCell id="Ji8SA3ziWT4KHIKLygUh-51" value="" style="edgeStyle=orthogonalEdgeStyle;rounded=0;orthogonalLoop=1;jettySize=auto;html=1;" edge="1" parent="WIyWlLk6GJQsqaUBKTNV-1" source="Ji8SA3ziWT4KHIKLygUh-43" target="Ji8SA3ziWT4KHIKLygUh-50">
          <mxGeometry relative="1" as="geometry" />
        </mxCell>
        <mxCell id="Ji8SA3ziWT4KHIKLygUh-43" value="脱水设备" style="rounded=1;whiteSpace=wrap;html=1;fontSize=12;glass=0;strokeWidth=1;shadow=0;" vertex="1" parent="WIyWlLk6GJQsqaUBKTNV-1">
          <mxGeometry x="329" y="840" width="90" height="30" as="geometry" />
        </mxCell>
        <mxCell id="Ji8SA3ziWT4KHIKLygUh-49" value="" style="edgeStyle=orthogonalEdgeStyle;rounded=0;orthogonalLoop=1;jettySize=auto;html=1;" edge="1" parent="WIyWlLk6GJQsqaUBKTNV-1" source="Ji8SA3ziWT4KHIKLygUh-47" target="Ji8SA3ziWT4KHIKLygUh-48">
          <mxGeometry relative="1" as="geometry" />
        </mxCell>
        <mxCell id="Ji8SA3ziWT4KHIKLygUh-47" value="提升轮后端" style="rounded=1;whiteSpace=wrap;html=1;fontSize=12;glass=0;strokeWidth=1;shadow=0;" vertex="1" parent="WIyWlLk6GJQsqaUBKTNV-1">
          <mxGeometry x="450" y="625" width="90" height="30" as="geometry" />
        </mxCell>
        <mxCell id="Ji8SA3ziWT4KHIKLygUh-48" value="矸石仓" style="rounded=1;whiteSpace=wrap;html=1;fontSize=12;glass=0;strokeWidth=1;shadow=0;" vertex="1" parent="WIyWlLk6GJQsqaUBKTNV-1">
          <mxGeometry x="580" y="625" width="90" height="30" as="geometry" />
        </mxCell>
        <mxCell id="Ji8SA3ziWT4KHIKLygUh-50" value="中煤" style="rounded=1;whiteSpace=wrap;html=1;fontSize=12;glass=0;strokeWidth=1;shadow=0;" vertex="1" parent="WIyWlLk6GJQsqaUBKTNV-1">
          <mxGeometry x="329" y="910" width="90" height="30" as="geometry" />
        </mxCell>
      </root>
    </mxGraphModel>
  </diagram>
</mxfile>
